<svg xmlns="http://www.w3.org/2000/svg" viewBox="0 0 24.53 24"><title>Asset 2</title><g id="bf577c09-8c8d-4a0d-8f5d-98dcee22a919" data-name="Layer 2"><g id="af3ae1df-fed2-47ad-805d-ab203065457f" data-name="Layer 1"><path d="M22.13,0a2.4,2.4,0,0,0-2.39,2.28A35.94,35.94,0,0,1,6.67,4.8H5.6A2.41,2.41,0,0,0,3.32,6.46a4,4,0,0,0,0,7.88A2.4,2.4,0,0,0,5.16,16l1,6a2.38,2.38,0,0,0,4.7-.75L10,16.17a36.42,36.42,0,0,1,9.7,2.35,2.4,2.4,0,0,0,4.79-.12V2.4A2.4,2.4,0,0,0,22.13,0ZM3.2,12.66a2.4,2.4,0,0,1,0-4.52ZM8.55,22.4a.8.8,0,0,1-.79-.67L6.79,16c.53,0,1.07,0,1.61,0l.91,5.47A.77.77,0,0,1,8.55,22.4Zm.89-7.89c-.93-.07-1.86-.11-2.77-.11H5.6a.8.8,0,0,1-.8-.8V7.2a.8.8,0,0,1,.8-.8H6.67c.91,0,1.84,0,2.77-.11Zm10.29,2.31A36.36,36.36,0,0,0,11,14.67V6.13A36.82,36.82,0,0,0,19.73,4Zm3.2,1.58a.8.8,0,0,1-1.6,0V2.4a.8.8,0,0,1,1.6,0Z" style="fill:#666"/></g></g></svg>