<svg xmlns="http://www.w3.org/2000/svg" viewBox="0 0 216.06 320.53"><defs><style>.cls-1{fill:#183283;}</style></defs><title>employee_avatar</title><g id="Layer_2" data-name="Layer 2"><g id="Layer_1-2" data-name="Layer 1"><path class="cls-1" d="M109.84,294.7q4.16-16.63,8.31-33.25C122,245.8,126,230.16,129.8,214.5c3.73-15.17,7.46-30.35,11-45.56,1.68-7.12,3.63-9.84,11.07-6.38,17.76,8.25,36.08,15.29,54,23.18,6.51,2.86,10.16,8,10.13,15.72-.18,37-.08,74-.1,111,0,7.82-.31,8.07-8.23,8.07H7.72c-7,0-7.68-.56-7.69-7.68Q0,257.11.05,201.35c0-11,4.42-16,16.74-20.55,16.68-6.14,33.27-12.51,49.86-18.85,5.32-2,7.51-.85,8.92,4.78,5.63,22.58,11.39,45.13,17,67.71,4.54,18.22,8.93,36.49,13.48,54.71a40.14,40.14,0,0,0,2.41,5.78Z"/><path class="cls-1" d="M170.56,72.56c1,14.8-1,29.1-9.35,42-12.47,19.14-30,29-53,29.22-30.64.31-59.23-24.32-61-57.42-.61-11.25-.66-22.74.87-33.87,3.09-22.38,16.4-37.53,36.61-47A53.94,53.94,0,0,1,118.25,1c22,4.32,38.46,16.55,47.55,37.66C170.47,49.47,171.24,60.84,170.56,72.56Z"/><path class="cls-1" d="M95.41,209c.6-5.29,1.06-10.61,1.82-15.88a21.8,21.8,0,0,0-3.58-15.66,29.25,29.25,0,0,1-3.13-5.65c-3-7.79,1.45-15.22,9.79-15.9a106.27,106.27,0,0,1,17.48,0c8.09.68,13.91,10.21,9,16-8.88,10.51-7.72,22.14-5.45,33.66,1.92,9.7-.75,18-4,26.53-.71,1.87-1,4.12-2.2,5.51-1.75,2-4.13,4.4-6.41,4.6-1.9.16-4.77-2.17-6-4.15C98,230.13,95.14,217.43,95.41,209Z"/></g></g></svg>